<svg preserveAspectRatio="none" overflow="visible" style="display: block;" width="1420.63" height="207.44" viewBox="0 0 1420.63 207.44" fill="none" xmlns="http://www.w3.org/2000/svg">
<g id="qstnmrk">
<path id="Vector" d="M1297.52 191.204H1256.04V4.54984H1297.52V86.4701L1367 4.54984H1416.77L1344.44 83.6184L1419.36 191.204H1368.81L1317.74 112.394L1297.52 134.689V191.204Z" fill="#E4E4E4"/>
<path id="Vector (Stroke)" d="M1256.04 4.55017V191.205H1297.51V134.689L1317.74 112.396L1368.81 191.205H1419.36L1344.44 83.6184L1416.77 4.55017H1366.99L1297.51 86.4706V4.55017H1256.04ZM1298.18 84.6629L1366.68 3.88725H1418.27L1345.28 83.6734L1420.63 191.865H1368.45L1368.25 191.564L1317.65 113.476L1298.18 134.944V191.865H1255.37V3.88725H1298.18V84.6629Z" fill="#E4E4E4"/>
<path id="Vector_2" d="M1081.09 191.204V4.54984H1154.45C1194.89 4.54984 1225.48 20.1043 1225.48 60.8052C1225.48 89.3217 1206.82 107.469 1179.6 111.098C1198.52 113.69 1213.56 131.06 1221.08 147.91L1240.52 191.204H1191.52L1178.04 159.835C1166.38 132.874 1154.71 126.393 1133.71 126.393H1122.57V191.204H1081.09ZM1122.57 42.1398V91.3957H1140.71C1167.41 91.3957 1183.23 84.3961 1183.23 66.5085C1183.23 44.7322 1164.82 42.1398 1140.19 42.1398H1122.57Z" fill="#E4E4E4"/>
<path id="Vector (Stroke)_2" d="M1225.48 60.8044C1225.48 20.1043 1194.89 4.55017 1154.45 4.55017V3.88725C1174.73 3.88725 1192.65 7.78696 1205.51 16.874C1218.41 25.9878 1226.14 40.2643 1226.14 60.8044C1226.14 75.2146 1221.42 87.0488 1213.23 95.7385C1205.78 103.628 1195.51 108.877 1183.39 111.147C1200.89 115.377 1214.62 131.807 1221.68 147.64H1221.68L1241.12 190.933L1241.54 191.865H1191.08L1190.91 191.464L1177.43 160.096V160.093C1171.62 146.659 1165.84 138.431 1158.99 133.544C1152.15 128.668 1144.14 127.057 1133.71 127.057H1123.22V191.865H1080.42V3.88725H1154.45V4.55017H1081.08V191.205H1122.56V126.394H1133.71C1154.71 126.394 1166.37 132.874 1178.04 159.835L1191.52 191.205H1240.52L1221.07 147.912C1213.55 131.061 1198.52 113.692 1179.6 111.099C1206.82 107.469 1225.48 89.3206 1225.48 60.8044ZM1182.56 66.5087C1182.56 61.1584 1181.43 57.0455 1179.4 53.8712C1177.38 50.6991 1174.42 48.4079 1170.68 46.7635C1163.14 43.4567 1152.52 42.8021 1140.19 42.8021H1123.22V90.7327H1140.71V91.3956H1122.56V42.1392H1140.19C1164.82 42.1392 1183.22 44.7326 1183.22 66.5087C1183.22 84.396 1167.41 91.3953 1140.71 91.3956V90.7327C1154.03 90.7325 1164.52 88.9851 1171.66 85.0801C1175.22 83.1337 1177.94 80.657 1179.77 77.6037C1181.6 74.5504 1182.56 70.8803 1182.56 66.5087Z" fill="#E4E4E4"/>
<path id="Vector_3" d="M893.696 191.204H852.217V4.54984H904.065L953.84 141.17L1003.35 4.54984H1055.2V191.204H1013.72V76.3597L971.209 191.204H936.211L893.696 76.3597V191.204Z" fill="#E4E4E4"/>
<path id="Vector (Stroke)_3" d="M1055.2 4.55016H1003.35L953.837 141.169L904.063 4.55016H852.213V191.205H893.692V76.3587L936.206 191.205H971.205L1013.72 76.3587V191.205H1055.2V4.55016ZM1055.86 191.865H1013.06V80.0484L971.826 191.435L971.664 191.865H935.747L935.585 191.435L894.355 80.0581V191.865H851.55V3.88724H904.525L904.684 4.32379L953.833 139.229L1002.89 3.88724H1055.86V191.865Z" fill="#E4E4E4"/>
<path id="Vector_4" d="M548.15 191.204H507.708V4.54984H549.705L630.329 122.764V4.54984H670.771V191.204H628.774L548.15 72.9895V191.204Z" fill="#E4E4E4"/>
<path id="Vector (Stroke)_4" d="M670.765 4.55016H630.324V122.763L549.7 4.55016H507.704V191.205H548.145V72.9891L628.769 191.205H670.765V4.55016ZM671.428 191.865H628.419L628.222 191.577L548.808 75.1363V191.865H507.041V3.88724H550.05L550.247 4.17827L629.661 120.616V3.88724H671.428V191.865Z" fill="#E4E4E4"/>
<path id="Vector_5" d="M434.586 191.204H393.108V42.1398H335.556V4.54984H492.138V42.1398H434.586V191.204Z" fill="#E4E4E4"/>
<path id="Vector (Stroke)_5" d="M492.149 42.1392V4.55016H335.568V42.1392H393.119V191.205H434.598V42.1392H492.149ZM492.812 42.8021H435.261V191.865H392.456V42.8021H334.905V3.88724H492.812V42.8021Z" fill="#E4E4E4"/>
<path id="Vector_6" d="M187.223 131.578L227.146 129.504C229.22 151.539 241.146 158.798 262.663 158.798C279.254 158.798 292.994 153.095 292.994 138.318C292.994 127.689 287.809 122.764 273.032 117.838C263.181 114.468 242.442 109.024 231.294 105.654C198.63 95.8024 192.408 75.0631 192.408 57.4347C192.408 18.8078 224.295 0.660875 258.255 0.660875C302.326 0.660875 326.695 19.067 329.288 57.9532L288.846 59.7679C286.513 46.2873 279.254 36.9546 259.292 36.9546C242.442 36.9546 232.331 43.9542 232.331 53.8053C232.331 60.8048 235.183 64.9527 243.997 68.3228C252.552 71.693 271.217 76.8778 289.105 81.8034C316.325 89.5806 335.509 105.913 335.509 137.022C335.509 176.426 299.216 195.092 263.699 195.092C214.184 195.092 190.075 171.242 187.223 131.578Z" fill="#E4E4E4"/>
<path id="Vector (Stroke)_6" d="M227.809 129.444C228.835 140.352 232.286 147.474 238.021 151.892C243.779 156.328 251.962 158.137 262.665 158.137V158.799L260.676 158.78C240.412 158.334 229.158 150.852 227.149 129.505L187.225 131.581C190.033 170.624 213.438 194.343 261.398 195.076L263.7 195.095C298.661 195.095 334.378 177.008 335.486 138.857L335.512 137.023C335.512 106.887 317.508 90.6189 291.636 82.5607L289.108 81.804C271.221 76.8787 252.556 71.6959 244 68.3258C235.186 64.9556 232.333 60.8058 232.333 53.8063C232.333 43.9557 242.446 36.9552 259.296 36.9552L261.129 36.9843C279.105 37.5266 286.133 46.1279 288.616 58.5178L288.849 59.7693L329.29 57.9552C326.738 19.6763 303.084 1.24231 260.308 0.675852L258.258 0.662917C224.297 0.662917 192.409 18.8108 192.409 57.4378L192.428 59.0967C192.824 76.3494 199.651 96.1124 231.295 105.656C242.442 109.026 263.181 114.471 273.033 117.841C287.809 122.766 292.995 127.691 292.995 138.32L292.956 139.678C292.134 153.447 278.738 158.799 262.665 158.799V158.137C270.902 158.136 278.349 156.719 283.714 153.532C289.037 150.369 292.335 145.457 292.335 138.32C292.335 133.128 291.074 129.426 288.086 126.407C285.058 123.349 280.196 120.925 272.826 118.468H272.819C262.975 115.1 242.306 109.677 231.104 106.29C214.655 101.329 204.791 93.5997 199.051 84.8243C193.317 76.0586 191.749 66.325 191.749 57.4378C191.749 37.9183 199.816 23.5281 212.196 14.0377C224.555 4.56395 241.17 0 258.258 0C280.373 4.45097e-05 297.652 4.61818 309.739 14.2091C321.845 23.8149 328.644 38.3309 329.95 57.9099L329.995 58.5857L329.319 58.6181L288.296 60.4581L288.196 59.8825C287.043 53.2244 284.691 47.6882 280.247 43.8075C275.806 39.9291 269.177 37.6184 259.296 37.6181C250.952 37.6181 244.348 39.3546 239.854 42.2456C235.379 45.125 232.996 49.1413 232.996 53.8063C232.996 57.2122 233.687 59.8397 235.382 62.02C236.877 63.9418 239.199 65.5795 242.674 67.0743L244.236 67.7049L244.243 67.7081C250.628 70.2234 262.697 73.7621 275.888 77.4546L289.282 81.167L289.289 81.1702C302.969 85.079 314.695 91.1536 323.004 100.217C331.325 109.295 336.175 121.32 336.175 137.023C336.175 156.96 326.979 171.67 313.309 181.374C299.66 191.063 281.562 195.755 263.7 195.755C238.843 195.754 220.262 189.768 207.53 178.71C194.791 167.645 188 151.583 186.566 131.626L186.517 130.954L227.747 128.813L227.809 129.444Z" fill="#E4E4E4"/>
<path id="Vector_7" d="M0.666412 97.8763C0.666412 41.621 32.5531 0.660875 89.5862 0.660875C146.36 0.660875 178.247 41.621 178.247 97.8763C178.247 125.097 170.729 148.688 156.73 165.798L172.543 183.426L147.138 206.498L129.509 186.796C118.103 191.981 104.622 195.092 89.5862 195.092C32.5531 195.092 0.666412 154.132 0.666412 97.8763ZM84.6606 136.244L110.066 113.172L128.213 133.911C132.879 124.319 135.472 112.135 135.472 97.8763C135.472 59.7679 117.843 36.9546 89.5862 36.9546C61.0696 36.9546 43.4412 59.7679 43.4412 97.8763C43.4412 135.985 61.0696 158.798 89.5862 158.798C94.2525 158.798 98.6596 158.28 102.807 156.983L84.6606 136.244Z" fill="#E4E4E4"/>
<path id="Vector (Stroke)_7" d="M178.244 97.8809C178.244 41.6256 146.355 0.664879 89.5812 0.664879C32.549 0.6656 0.662918 41.6261 0.662918 97.8809L0.685554 100.507C1.64952 154.534 32.4395 193.83 86.9263 195.065L89.5812 195.097C104.617 195.097 118.098 191.984 129.505 186.799L147.135 206.502L172.54 183.43L156.727 165.802C170.288 149.227 177.767 126.569 178.221 100.423L178.244 97.8809ZM134.805 97.8809C134.805 78.9194 130.419 63.8462 122.594 53.5301C114.785 43.235 103.511 37.6201 89.5812 37.6201C75.5205 37.6205 64.1849 43.2364 56.3448 53.5301C48.4883 63.8457 44.0986 78.9189 44.0986 97.8809C44.0987 116.843 48.4884 131.916 56.3448 142.232C64.1849 152.525 75.5209 158.138 89.5812 158.139V158.801C61.5113 158.801 43.9927 136.696 43.4518 99.6562L43.4389 97.8809C43.4389 59.7731 61.0655 36.958 89.5812 36.9572C117.838 36.9572 135.468 59.7724 135.468 97.8809L135.439 100.529C135.137 113.652 132.583 124.922 128.208 133.915L110.064 113.177L84.6562 136.249L102.804 156.987C98.6561 158.283 94.2475 158.801 89.5812 158.801V158.139C93.828 158.139 97.8363 157.696 101.617 156.638L83.7313 136.194L84.2132 135.758L110.115 112.232L110.562 112.74L128.037 132.708C132.378 123.368 134.805 111.612 134.805 97.8809ZM178.907 97.8809C178.907 124.986 171.475 148.558 157.59 165.773L173.034 182.987L173.471 183.478L172.986 183.921L147.087 207.44L146.641 206.945L129.33 187.598C117.931 192.702 104.514 195.757 89.5812 195.757C60.8959 195.756 38.4772 185.451 23.2377 168.021C8.00781 150.601 0.000106391 126.129 0 97.8809C0 69.6329 8.0077 45.1607 23.2377 27.741C38.4772 10.3106 60.8956 0.0023225 89.5812 0.00196199C118.139 0.00196199 140.495 10.3106 155.702 27.741C170.899 45.1605 178.907 69.6329 178.907 97.8809Z" fill="#E4E4E4"/>
</g>
</svg>
